<svg width="327" height="327" viewBox="0 0 327 327" fill="none" xmlns="http://www.w3.org/2000/svg">
<path d="M166.976 211.37L166.753 219.781H188.516C188.651 219.776 188.778 219.718 188.87 219.62C188.963 219.523 189.013 219.392 189.01 219.258C189.011 219.183 188.994 219.11 188.962 219.043C188.931 218.976 188.884 218.917 188.826 218.87L178.71 210.905L166.976 211.37Z" fill="#F56132"/>
<path d="M166.752 220.759C166.487 220.757 166.234 220.653 166.045 220.468C165.953 220.374 165.882 220.261 165.835 220.138C165.788 220.015 165.767 219.883 165.773 219.751L165.986 211.341C165.986 211.084 166.088 210.837 166.27 210.655C166.452 210.474 166.698 210.372 166.955 210.372L178.661 209.916C178.891 209.906 179.118 209.978 179.3 210.12L189.445 218.075C189.69 218.264 189.87 218.526 189.958 218.822C190.047 219.119 190.041 219.436 189.94 219.729C189.84 220.021 189.65 220.275 189.398 220.455C189.146 220.635 188.844 220.731 188.535 220.73H166.791L166.752 220.759ZM167.934 212.31L167.769 218.792H187.149L178.38 211.912L167.934 212.31Z" fill="#093F68"/>
<path d="M179.232 147.717C179.232 147.717 187.952 146.913 189.512 148.047C191.072 149.181 192.991 151.613 192.894 152.969C192.797 154.326 192.245 155.876 190.956 155.876C189.532 155.752 188.102 155.71 186.673 155.75C185.065 155.915 178.708 155.993 178.708 155.993L179.232 147.717Z" fill="#FFC9B0"/>
<path d="M178.709 156.981C178.452 156.981 178.206 156.879 178.024 156.697C177.842 156.516 177.74 156.269 177.74 156.012V155.944L178.283 147.669C178.294 147.433 178.391 147.21 178.555 147.04C178.719 146.871 178.939 146.767 179.174 146.749C181.316 146.555 188.409 146.002 190.124 147.262C191.519 148.231 194.058 151.031 193.913 153.008C193.738 155.324 192.595 156.884 191.006 156.884C190.442 156.884 189.88 156.855 189.32 156.797C188.489 156.71 187.651 156.71 186.82 156.797C185.182 156.971 179.068 157.049 178.758 157.049L178.709 156.981ZM180.172 148.628L179.756 155.004C181.626 155.004 185.415 154.898 186.539 154.772C187.505 154.673 188.479 154.673 189.446 154.772C189.978 154.772 190.415 154.859 190.938 154.859C191.461 154.859 191.858 153.793 191.907 152.814C191.965 152.078 190.502 149.907 189 148.793C188.254 148.318 184.029 148.318 180.192 148.628H180.172Z" fill="#093F68"/>
<path d="M152.943 126.768C150.23 121.923 149.067 119.878 144.581 119.878H132.159C130.915 119.877 129.683 120.121 128.534 120.596C127.385 121.072 126.341 121.769 125.462 122.648C124.582 123.528 123.885 124.572 123.41 125.721C122.934 126.87 122.69 128.102 122.692 129.345V160.12H154.019V149.878C159.833 156.855 168.767 158.211 178.321 159.568L180.075 147.078C167.827 145.363 157.43 134.927 152.943 126.768Z" fill="#68E1FD"/>
<path d="M154.018 161.099H122.69C122.433 161.099 122.187 160.997 122.005 160.815C121.824 160.634 121.721 160.387 121.721 160.13V129.307C121.721 127.935 121.992 126.577 122.517 125.309C123.042 124.042 123.811 122.891 124.781 121.921C125.751 120.951 126.902 120.181 128.17 119.656C129.437 119.131 130.795 118.861 132.167 118.861H144.58C149.648 118.861 151.004 121.293 153.727 126.148L153.814 126.284C158.427 134.665 168.669 144.442 180.258 146.09C180.509 146.135 180.732 146.277 180.879 146.485C181.026 146.694 181.085 146.952 181.043 147.204L179.26 159.694C179.243 159.822 179.201 159.945 179.136 160.057C179.071 160.168 178.985 160.266 178.882 160.343C178.779 160.421 178.662 160.477 178.537 160.509C178.412 160.54 178.282 160.547 178.155 160.527C169.754 159.326 161.091 158.095 154.967 152.34V160.091C154.972 160.22 154.952 160.349 154.907 160.47C154.862 160.59 154.793 160.701 154.704 160.795C154.616 160.889 154.51 160.964 154.392 161.016C154.274 161.069 154.147 161.097 154.018 161.099V161.099ZM123.679 159.161H153.029V149.84C153.028 149.638 153.09 149.44 153.206 149.275C153.323 149.11 153.488 148.986 153.679 148.919C153.867 148.845 154.075 148.833 154.271 148.883C154.468 148.934 154.643 149.045 154.773 149.2C160.219 155.741 168.543 157.136 177.486 158.415L178.998 147.853C167.147 145.721 156.818 135.77 152.08 127.243L152.012 127.117C149.376 122.417 148.475 120.838 144.57 120.838H132.157C129.909 120.838 127.752 121.731 126.162 123.321C124.572 124.911 123.679 127.068 123.679 129.317V159.161Z" fill="#093F68"/>
<path d="M150.774 149.345C150.517 149.345 150.27 149.243 150.088 149.061C149.907 148.88 149.805 148.633 149.805 148.376V133.192C149.805 133.065 149.83 132.939 149.878 132.821C149.927 132.704 149.999 132.597 150.088 132.507C150.178 132.417 150.285 132.346 150.403 132.297C150.52 132.248 150.646 132.223 150.774 132.223C150.901 132.223 151.027 132.248 151.144 132.297C151.262 132.346 151.369 132.417 151.459 132.507C151.549 132.597 151.62 132.704 151.669 132.821C151.718 132.939 151.743 133.065 151.743 133.192V148.367C151.744 148.495 151.72 148.622 151.672 148.74C151.624 148.859 151.552 148.967 151.462 149.058C151.372 149.149 151.265 149.221 151.147 149.271C151.029 149.32 150.902 149.345 150.774 149.345Z" fill="#093F68"/>
<path d="M136.22 118.241H143.003V122.175C143.003 122.946 142.696 123.685 142.151 124.23C141.606 124.775 140.867 125.082 140.096 125.082H139.127C138.356 125.082 137.616 124.775 137.071 124.23C136.526 123.685 136.22 122.946 136.22 122.175V122.175V118.241Z" fill="#FFC9B0"/>
<path d="M140.135 126.032H139.166C138.144 126.012 137.17 125.597 136.447 124.874C135.725 124.152 135.31 123.177 135.29 122.156V118.222C135.29 117.965 135.392 117.718 135.574 117.536C135.756 117.355 136.002 117.253 136.259 117.253H143.042C143.299 117.253 143.545 117.355 143.727 117.536C143.909 117.718 144.011 117.965 144.011 118.222V122.156C144.011 123.184 143.603 124.169 142.876 124.896C142.149 125.623 141.163 126.032 140.135 126.032ZM137.228 119.249V122.204C137.228 122.718 137.432 123.211 137.796 123.574C138.159 123.938 138.652 124.142 139.166 124.142H140.135C140.649 124.142 141.142 123.938 141.505 123.574C141.869 123.211 142.073 122.718 142.073 122.204V122.204V119.22L137.228 119.249Z" fill="#093F68"/>
<path d="M227.322 234.083H123.166V226.69H74.9691C74.8141 200.208 95.0852 185.712 95.0852 185.712H159.726C159.726 185.712 150.618 191.526 147.924 205.014C146.073 214.18 161.693 222.717 178.99 218.783C196.286 214.849 201.615 206.574 199.406 190.595C197.197 174.617 183.311 158.619 183.311 158.619H195.414C195.414 158.619 202.807 161.875 215.239 183.813C217.355 187.59 219.151 191.538 220.607 195.615C225.791 209.83 227.003 224.229 227.293 230.673V231.719C227.332 233.211 227.322 234.083 227.322 234.083Z" fill="#68E1FD"/>
<path d="M227.323 235.071H123.167C122.91 235.071 122.664 234.969 122.482 234.788C122.3 234.606 122.198 234.359 122.198 234.102V227.697H74.9699C74.7129 227.697 74.4664 227.595 74.2847 227.414C74.103 227.232 74.0009 226.985 74.0009 226.728C73.8458 200.052 94.3495 185.062 94.5239 184.936C94.6914 184.819 94.8915 184.758 95.0956 184.762H159.727C159.945 184.751 160.16 184.814 160.338 184.941C160.515 185.068 160.645 185.251 160.705 185.461C160.766 185.67 160.754 185.894 160.671 186.096C160.589 186.298 160.44 186.467 160.25 186.574C160.163 186.632 151.452 192.388 148.855 205.256C148.215 208.434 150.027 210.992 151.655 212.591C156.219 217.048 166.645 220.605 178.787 217.872C195.124 214.17 200.637 206.574 198.457 190.74C196.296 175.237 182.721 159.452 182.585 159.268C182.458 159.127 182.375 158.952 182.346 158.764C182.318 158.577 182.345 158.385 182.424 158.213C182.504 158.04 182.632 157.895 182.793 157.795C182.954 157.695 183.142 157.644 183.331 157.65H195.434C195.57 157.651 195.705 157.677 195.831 157.727C196.141 157.863 203.699 161.371 216.122 183.299C218.256 187.113 220.074 191.096 221.558 195.207C225.536 206.595 227.821 218.505 228.341 230.556V231.602C228.341 233.211 228.341 234.102 228.341 234.102C228.341 234.234 228.314 234.364 228.262 234.485C228.211 234.606 228.135 234.715 228.04 234.805C227.945 234.896 227.832 234.966 227.709 235.012C227.586 235.058 227.454 235.078 227.323 235.071ZM124.146 233.133H226.325V230.653C225.831 218.809 223.601 207.101 219.707 195.905C218.264 191.89 216.491 188 214.407 184.277C203.331 164.84 196.325 160.256 195.192 159.617H185.415C189 164.113 198.554 177.165 200.405 190.45C202.74 207.32 196.606 215.808 179.223 219.732C170.25 221.767 157.372 220.818 150.328 213.919C147.537 211.186 146.345 207.95 146.975 204.8C148.252 197.848 151.722 191.487 156.878 186.651H95.367C93.1286 188.386 76.2392 202.155 75.9195 225.672H123.128C123.385 225.672 123.632 225.774 123.814 225.956C123.995 226.138 124.097 226.384 124.097 226.641L124.146 233.133Z" fill="#093F68"/>
<path d="M226.898 231.835V234.083H192.189C192.14 233.347 192.111 232.591 192.111 231.835C192.157 223.783 195.065 216.011 200.316 209.907C205.568 203.804 212.819 199.768 220.774 198.521C222.453 198.257 224.151 198.127 225.851 198.134C230.611 198.134 235.318 199.143 239.66 201.094C244.002 203.045 247.882 205.893 251.045 209.451L226.898 230.924L225.812 231.893L226.898 231.835Z" fill="#68E1FD"/>
<path d="M226.974 235.071H192.187C191.94 235.072 191.702 234.978 191.522 234.808C191.342 234.639 191.233 234.407 191.218 234.16C191.16 233.353 191.131 232.578 191.131 231.835C191.182 223.558 194.171 215.569 199.564 209.29C204.957 203.011 212.404 198.852 220.578 197.552C222.309 197.282 224.059 197.146 225.811 197.145C230.708 197.147 235.55 198.183 240.019 200.187C244.488 202.191 248.482 205.117 251.741 208.773C251.829 208.868 251.897 208.979 251.941 209.101C251.986 209.222 252.005 209.351 251.999 209.48C251.993 209.609 251.96 209.736 251.904 209.852C251.849 209.969 251.77 210.073 251.673 210.159L227.817 231.35C227.883 231.483 227.923 231.628 227.933 231.777V234.073C227.937 234.202 227.915 234.33 227.868 234.451C227.822 234.571 227.752 234.681 227.663 234.774C227.574 234.867 227.467 234.941 227.348 234.992C227.23 235.043 227.102 235.07 226.974 235.071ZM193.127 233.133H225.985V232.862H225.82C225.563 232.862 225.317 232.76 225.135 232.578C224.954 232.397 224.851 232.15 224.851 231.893C224.85 231.754 224.879 231.616 224.936 231.489C224.993 231.362 225.076 231.249 225.181 231.157L226.266 230.188L249.628 209.432C246.568 206.193 242.879 203.612 238.787 201.847C234.695 200.083 230.286 199.172 225.83 199.17C224.185 199.169 222.542 199.298 220.917 199.558C213.204 200.78 206.176 204.702 201.086 210.624C195.996 216.546 193.175 224.084 193.127 231.893C193.127 232.319 193.127 232.746 193.127 233.182V233.133Z" fill="#093F68"/>
<path d="M248.356 235.271C250.353 222.969 241.999 211.376 229.696 209.379C217.393 207.382 205.801 215.737 203.804 228.039C201.807 240.342 210.161 251.934 222.464 253.931C234.767 255.928 246.359 247.574 248.356 235.271Z" fill="#093F68"/>
<path d="M226.072 255.207C221.415 255.207 216.863 253.827 212.99 251.241C209.118 248.654 206.098 244.978 204.314 240.677C202.53 236.375 202.06 231.641 202.965 227.073C203.87 222.505 206.109 218.308 209.399 215.012C212.688 211.715 216.881 209.468 221.447 208.554C226.013 207.639 230.748 208.099 235.053 209.874C239.358 211.65 243.041 214.661 245.635 218.529C248.229 222.396 249.619 226.946 249.628 231.603C249.635 234.7 249.03 237.768 247.849 240.632C246.668 243.496 244.934 246.098 242.746 248.291C240.558 250.483 237.959 252.223 235.098 253.409C232.237 254.596 229.17 255.207 226.072 255.207V255.207ZM226.072 210.062C221.793 210.053 217.607 211.312 214.043 213.682C210.48 216.051 207.699 219.424 206.052 223.374C204.406 227.325 203.967 231.674 204.793 235.873C205.618 240.072 207.67 243.932 210.69 246.965C213.709 249.998 217.56 252.067 221.755 252.912C225.95 253.756 230.302 253.337 234.259 251.708C238.217 250.08 241.602 247.314 243.988 243.761C246.373 240.208 247.652 236.027 247.661 231.748V231.651C247.648 225.929 245.37 220.445 241.324 216.4C237.278 212.354 231.794 210.075 226.072 210.062V210.062Z" fill="#093F68"/>
<path d="M226.073 241.118C231.302 241.118 235.54 236.879 235.54 231.651C235.54 226.422 231.302 222.184 226.073 222.184C220.845 222.184 216.606 226.422 216.606 231.651C216.606 236.879 220.845 241.118 226.073 241.118Z" fill="white"/>
<path d="M226.071 242.096C224.003 242.098 221.981 241.487 220.261 240.34C218.54 239.192 217.199 237.561 216.406 235.651C215.612 233.741 215.403 231.639 215.805 229.611C216.207 227.582 217.201 225.718 218.661 224.255C220.122 222.791 221.984 221.794 224.012 221.388C226.04 220.983 228.142 221.188 230.053 221.978C231.965 222.767 233.599 224.106 234.749 225.824C235.9 227.543 236.515 229.563 236.517 231.631V231.631C236.517 234.403 235.417 237.062 233.458 239.024C231.5 240.986 228.843 242.091 226.071 242.096V242.096ZM226.071 223.162C224.392 223.16 222.75 223.656 221.354 224.587C219.957 225.519 218.867 226.843 218.223 228.393C217.579 229.944 217.409 231.65 217.734 233.297C218.06 234.944 218.867 236.457 220.052 237.646C221.238 238.834 222.75 239.645 224.396 239.974C226.042 240.303 227.749 240.137 229.301 239.496C230.852 238.856 232.179 237.769 233.114 236.375C234.048 234.98 234.548 233.339 234.55 231.66V231.66C234.547 229.412 233.653 227.255 232.064 225.664C230.475 224.073 228.32 223.177 226.071 223.172V223.162Z" fill="#093F68"/>
<path d="M106.51 254.218C118.974 254.218 129.078 244.114 129.078 231.65C129.078 219.187 118.974 209.083 106.51 209.083C94.0463 209.083 83.9424 219.187 83.9424 231.65C83.9424 244.114 94.0463 254.218 106.51 254.218Z" fill="#093F68"/>
<path d="M106.51 255.207C101.855 255.197 97.3075 253.809 93.4412 251.217C89.5749 248.625 86.5632 244.945 84.7863 240.643C83.0094 236.341 82.547 231.609 83.4574 227.044C84.3679 222.479 86.6104 218.286 89.9018 214.994C93.1933 211.703 97.3861 209.461 101.951 208.55C106.516 207.64 111.248 208.102 115.551 209.879C119.853 211.656 123.532 214.668 126.124 218.534C128.716 222.4 130.105 226.948 130.114 231.603C130.121 234.704 129.515 237.776 128.331 240.643C127.147 243.51 125.408 246.115 123.215 248.308C121.022 250.501 118.417 252.239 115.551 253.423C112.684 254.607 109.612 255.213 106.51 255.207V255.207ZM106.51 210.062C102.23 210.062 98.0471 211.331 94.4888 213.709C90.9306 216.086 88.1573 219.466 86.5196 223.419C84.8819 227.373 84.4534 231.723 85.2883 235.921C86.1232 240.118 88.1839 243.973 91.21 246.999C94.236 250.025 98.0914 252.086 102.289 252.921C106.486 253.756 110.836 253.328 114.79 251.69C118.744 250.052 122.123 247.279 124.501 243.721C126.878 240.162 128.147 235.979 128.147 231.699V231.651C128.137 225.92 125.853 220.427 121.796 216.38C117.739 212.332 112.241 210.06 106.51 210.062V210.062Z" fill="#093F68"/>
<path d="M106.511 241.118C111.74 241.118 115.978 236.879 115.978 231.651C115.978 226.422 111.74 222.184 106.511 222.184C101.283 222.184 97.0442 226.422 97.0442 231.651C97.0442 236.879 101.283 241.118 106.511 241.118Z" fill="white"/>
<path d="M106.511 242.096C104.443 242.096 102.422 241.483 100.702 240.334C98.983 239.185 97.6429 237.552 96.8515 235.642C96.0602 233.732 95.8531 231.629 96.2566 229.601C96.66 227.573 97.6558 225.71 99.118 224.248C100.58 222.786 102.443 221.79 104.471 221.387C106.499 220.983 108.602 221.19 110.512 221.981C112.423 222.773 114.055 224.113 115.204 225.832C116.353 227.552 116.966 229.573 116.966 231.641V231.641C116.964 234.413 115.861 237.071 113.901 239.031C111.941 240.991 109.283 242.094 106.511 242.096ZM106.511 223.162C104.832 223.162 103.191 223.66 101.795 224.593C100.399 225.526 99.3113 226.851 98.6688 228.402C98.0264 229.953 97.8583 231.66 98.1858 233.307C98.5133 234.953 99.3218 236.466 100.509 237.653C101.696 238.84 103.208 239.648 104.855 239.976C106.502 240.303 108.208 240.135 109.759 239.493C111.31 238.85 112.636 237.762 113.569 236.366C114.501 234.971 114.999 233.329 114.999 231.651C114.997 229.401 114.101 227.245 112.51 225.655C110.918 224.065 108.761 223.172 106.511 223.172V223.162Z" fill="#093F68"/>
<path d="M108.147 172.388H151.422C152.514 172.388 153.595 172.603 154.604 173.021C155.612 173.438 156.529 174.051 157.301 174.823C158.073 175.595 158.685 176.511 159.103 177.52C159.521 178.529 159.736 179.61 159.736 180.702V185.692H94.8044C94.8044 182.16 96.2068 178.773 98.7034 176.274C101.2 173.776 104.586 172.371 108.118 172.368L108.147 172.388Z" fill="#FFBC0E"/>
<path d="M159.728 186.671H94.8057C94.5487 186.671 94.3022 186.569 94.1205 186.387C93.9388 186.205 93.8367 185.959 93.8367 185.702C93.8392 181.909 95.3469 178.273 98.0285 175.591C100.71 172.91 104.346 171.402 108.139 171.399H151.414C153.877 171.402 156.24 172.382 157.982 174.124C159.724 175.866 160.704 178.228 160.706 180.692V185.702C160.706 185.83 160.681 185.957 160.632 186.075C160.582 186.193 160.51 186.3 160.419 186.39C160.328 186.48 160.22 186.552 160.101 186.6C159.983 186.648 159.856 186.672 159.728 186.671ZM95.8715 184.733H158.759V180.711C158.756 178.769 157.983 176.908 156.61 175.534C155.237 174.161 153.375 173.388 151.433 173.386H108.119C105.03 173.397 102.056 174.565 99.7857 176.66C97.5148 178.755 96.1114 181.625 95.8522 184.704L95.8715 184.733Z" fill="#093F68"/>
<path d="M79.9607 226.69H130.115C130.115 226.69 144.757 210.333 134.786 200.459C127.266 193.027 112.354 193.676 99.9024 200.353C87.4509 207.029 82.6254 218.628 79.9607 226.69Z" fill="#68E1FD"/>
<path d="M130.116 227.678H79.9616C79.8054 227.678 79.6516 227.639 79.5132 227.567C79.3749 227.494 79.2561 227.389 79.1671 227.261C79.0755 227.136 79.0153 226.99 78.9917 226.837C78.9681 226.683 78.9817 226.526 79.0314 226.379C81.7736 218.065 86.8996 206.224 99.4673 199.49C112.897 192.29 127.984 192.407 135.475 199.761C145.988 210.178 131.482 226.651 130.853 227.3C130.762 227.41 130.65 227.5 130.524 227.565C130.397 227.631 130.258 227.669 130.116 227.678ZM81.3279 225.74H129.69C131.628 223.424 142.548 209.558 134.108 201.147C127.277 194.364 113.101 194.364 100.417 201.205C89.167 207.281 84.3124 217.31 81.357 225.74H81.3279Z" fill="#093F68"/>
<path d="M195.365 149.966H183.379V158.619H195.365V149.966Z" fill="#FFBC0E"/>
<path d="M195.364 159.616H183.378C183.121 159.616 182.875 159.514 182.693 159.332C182.511 159.151 182.409 158.904 182.409 158.647V149.965C182.409 149.708 182.511 149.462 182.693 149.28C182.875 149.098 183.121 148.996 183.378 148.996H195.364C195.621 148.996 195.868 149.098 196.05 149.28C196.231 149.462 196.333 149.708 196.333 149.965V158.628C196.336 158.757 196.313 158.885 196.265 159.005C196.218 159.124 196.147 159.233 196.057 159.326C195.966 159.418 195.859 159.491 195.74 159.541C195.621 159.59 195.493 159.616 195.364 159.616V159.616ZM184.357 157.678H194.376V150.953H184.357V157.678Z" fill="#093F68"/>
<path d="M204.243 146.913L195.367 149.966V158.628L204.243 161.69V146.913Z" fill="#FFBC0E"/>
<path d="M204.3 162.679C204.188 162.671 204.077 162.648 203.971 162.611L195.124 159.559C194.923 159.491 194.75 159.36 194.631 159.185C194.512 159.01 194.454 158.801 194.465 158.59V149.966C194.454 149.754 194.512 149.545 194.631 149.37C194.75 149.195 194.923 149.064 195.124 148.997L203.971 145.935C204.118 145.882 204.277 145.866 204.432 145.888C204.587 145.91 204.735 145.969 204.862 146.061C204.992 146.151 205.098 146.271 205.17 146.411C205.243 146.551 205.28 146.707 205.279 146.865V161.613C205.279 161.769 205.241 161.923 205.168 162.061C205.095 162.2 204.99 162.318 204.862 162.407C204.71 162.557 204.512 162.653 204.3 162.679ZM196.432 157.921L203.312 160.314V148.318L196.432 150.702V157.921Z" fill="#093F68"/>
<path d="M180.221 163.609C179.964 163.609 179.718 163.507 179.536 163.325C179.354 163.143 179.252 162.897 179.252 162.64C179.251 162.503 179.279 162.367 179.334 162.242C179.389 162.117 179.47 162.005 179.572 161.913L188.719 153.599C188.813 153.51 188.924 153.442 189.045 153.396C189.166 153.351 189.295 153.331 189.424 153.336C189.553 153.342 189.68 153.373 189.797 153.428C189.914 153.483 190.018 153.561 190.105 153.657C190.195 153.751 190.265 153.863 190.311 153.985C190.357 154.107 190.378 154.237 190.372 154.367C190.367 154.498 190.335 154.625 190.279 154.743C190.223 154.861 190.144 154.966 190.046 155.053L180.89 163.376C180.704 163.535 180.465 163.618 180.221 163.609Z" fill="#093F68"/>
<path d="M189.378 150.954C189.139 150.955 188.907 150.868 188.728 150.709C188.549 150.55 188.435 150.33 188.409 150.092L187.169 140.809L181.21 136.933C181.105 136.856 181.017 136.76 180.95 136.649C180.884 136.537 180.84 136.414 180.822 136.286C180.804 136.157 180.812 136.027 180.845 135.902C180.878 135.776 180.936 135.659 181.016 135.557C181.16 135.361 181.372 135.226 181.611 135.179C181.85 135.133 182.097 135.177 182.304 135.305L188.642 139.481C188.758 139.558 188.857 139.66 188.93 139.779C189.004 139.897 189.051 140.031 189.068 140.169L190.347 149.859C190.368 149.987 190.362 150.118 190.331 150.244C190.3 150.37 190.244 150.489 190.166 150.593C190.089 150.697 189.991 150.784 189.879 150.849C189.767 150.915 189.642 150.957 189.514 150.973H189.378V150.954Z" fill="#093F68"/>
<path d="M180.22 129.404C180.631 129.404 181.026 129.567 181.317 129.858C181.607 130.149 181.771 130.543 181.771 130.954V141.167C181.771 141.578 181.607 141.973 181.317 142.263C181.026 142.554 180.631 142.718 180.22 142.718C179.809 142.718 179.415 142.554 179.124 142.263C178.833 141.973 178.67 141.578 178.67 141.167V130.954C178.67 130.543 178.833 130.149 179.124 129.858C179.415 129.567 179.809 129.404 180.22 129.404Z" fill="#F56132"/>
<path d="M180.22 143.716C179.887 143.716 179.557 143.65 179.249 143.522C178.941 143.395 178.661 143.208 178.425 142.972C178.189 142.736 178.002 142.456 177.875 142.148C177.747 141.84 177.682 141.51 177.682 141.177V141.177V130.954C177.682 130.281 177.949 129.635 178.425 129.159C178.901 128.683 179.547 128.415 180.22 128.415C180.894 128.415 181.539 128.683 182.016 129.159C182.492 129.635 182.759 130.281 182.759 130.954V141.167C182.76 141.501 182.696 141.833 182.569 142.142C182.442 142.451 182.255 142.732 182.019 142.969C181.783 143.205 181.503 143.393 181.194 143.521C180.886 143.65 180.555 143.716 180.22 143.716V143.716ZM180.22 130.392C180.069 130.392 179.923 130.452 179.816 130.56C179.709 130.667 179.649 130.812 179.649 130.964V130.964V141.167C179.649 141.319 179.709 141.464 179.816 141.571C179.923 141.679 180.069 141.739 180.22 141.739C180.371 141.736 180.515 141.675 180.622 141.569C180.729 141.462 180.79 141.318 180.792 141.167V130.954C180.79 130.803 180.729 130.659 180.622 130.553C180.515 130.446 180.371 130.385 180.22 130.382V130.392Z" fill="#093F68"/>
<path d="M114.583 220.575H94.8057C94.5487 220.575 94.3022 220.473 94.1205 220.291C93.9388 220.11 93.8367 219.863 93.8367 219.606C93.8367 219.349 93.9388 219.103 94.1205 218.921C94.3022 218.739 94.5487 218.637 94.8057 218.637H114.583C114.84 218.637 115.086 218.739 115.268 218.921C115.449 219.103 115.552 219.349 115.552 219.606C115.552 219.863 115.449 220.11 115.268 220.291C115.086 220.473 114.84 220.575 114.583 220.575Z" fill="#093F68"/>
<path d="M116.392 215.837H96.6345C96.3775 215.837 96.1311 215.735 95.9493 215.553C95.7676 215.372 95.6655 215.125 95.6655 214.868C95.6655 214.611 95.7676 214.365 95.9493 214.183C96.1311 214.001 96.3775 213.899 96.6345 213.899H116.392C116.649 213.899 116.896 214.001 117.077 214.183C117.259 214.365 117.361 214.611 117.361 214.868C117.361 215.125 117.259 215.372 117.077 215.553C116.896 215.735 116.649 215.837 116.392 215.837Z" fill="#093F68"/>
<path d="M118.207 211.099H98.4497C98.1927 211.099 97.9462 210.997 97.7645 210.815C97.5828 210.633 97.4807 210.387 97.4807 210.13C97.4807 209.873 97.5828 209.626 97.7645 209.445C97.9462 209.263 98.1927 209.161 98.4497 209.161H118.207C118.464 209.161 118.711 209.263 118.892 209.445C119.074 209.626 119.176 209.873 119.176 210.13C119.176 210.387 119.074 210.633 118.892 210.815C118.711 210.997 118.464 211.099 118.207 211.099Z" fill="#093F68"/>
<path d="M176.74 149.907C176.74 149.907 185.461 148.803 187.021 149.907C188.581 151.012 190.616 153.347 190.567 154.675C190.519 156.002 190.015 157.582 188.707 157.688C187.277 157.601 185.844 157.601 184.414 157.688C182.825 157.911 176.469 158.202 176.469 158.202L176.74 149.907Z" fill="#FFC9B0"/>
<path d="M176.481 159.219C176.224 159.219 175.978 159.117 175.796 158.935C175.615 158.754 175.512 158.507 175.512 158.25L175.774 149.956C175.772 149.718 175.858 149.487 176.016 149.309C176.173 149.13 176.39 149.015 176.627 148.987C178.768 148.716 185.832 147.931 187.596 149.142C189.02 150.111 191.646 152.766 191.53 154.752C191.433 157.078 190.338 158.628 188.739 158.686H187.043C186.209 158.609 185.368 158.609 184.534 158.686C182.915 158.929 176.782 159.2 176.491 159.21L176.481 159.219ZM177.702 150.818L177.499 157.204C179.369 157.117 183.148 156.923 184.282 156.748C185.248 156.651 186.222 156.651 187.189 156.748H188.671C189.175 156.748 189.553 155.673 189.592 154.684C189.592 153.948 188.09 151.874 186.472 150.75C185.745 150.266 181.52 150.402 177.751 150.818H177.702Z" fill="#093F68"/>
<path d="M138.846 129.404C143.002 134.791 155.173 147.165 179.611 147.969L180.289 160.566C180.289 160.566 179.572 160.634 179.194 160.624C150.89 159.655 135.677 145.557 129.495 137.931" fill="#68E1FD"/>
<path d="M179.283 161.564H179.167C150.795 160.595 135.398 146.719 128.78 138.502C128.616 138.301 128.538 138.042 128.564 137.783C128.591 137.524 128.719 137.286 128.921 137.122C129.122 136.957 129.381 136.879 129.64 136.906C129.899 136.932 130.137 137.06 130.301 137.262C136.755 145.208 151.677 158.686 179.264 159.549L178.751 148.89C154.458 147.805 142.278 135.324 138.14 129.975C137.968 129.78 137.881 129.524 137.897 129.264C137.913 129.005 138.032 128.762 138.228 128.59C138.423 128.417 138.679 128.33 138.939 128.346C139.198 128.363 139.441 128.482 139.613 128.677C139.644 128.705 139.671 128.737 139.691 128.774C143.712 133.977 155.65 146.215 179.71 146.962C179.967 146.962 180.213 147.064 180.395 147.245C180.577 147.427 180.679 147.674 180.679 147.931L181.357 160.527C181.358 160.771 181.267 161.007 181.101 161.187C180.936 161.366 180.709 161.477 180.466 161.496C180.075 161.558 179.679 161.58 179.283 161.564Z" fill="#093F68"/>
<path d="M152.827 160.12L122.692 160.304V165.692C122.684 167.645 123.366 169.538 124.618 171.038C125.869 172.537 127.61 173.547 129.533 173.889L160.424 179.568C162.101 179.88 163.617 180.768 164.709 182.079C165.801 183.39 166.4 185.042 166.403 186.748V210.575H180.676V186.758C180.676 167.833 152.827 160.12 152.827 160.12Z" fill="#093F68"/>
<path d="M180.677 211.544H166.355C166.098 211.544 165.852 211.442 165.67 211.26C165.488 211.079 165.386 210.832 165.386 210.575V186.758C165.384 185.281 164.865 183.852 163.92 182.718C162.975 181.584 161.663 180.815 160.212 180.546L129.321 174.868C127.188 174.478 125.261 173.351 123.874 171.685C122.487 170.018 121.73 167.918 121.733 165.75V160.362C121.733 160.106 121.835 159.859 122.017 159.677C122.199 159.496 122.445 159.394 122.702 159.394L152.838 159.2C152.928 159.19 153.019 159.19 153.109 159.2C158.088 160.691 162.856 162.814 167.295 165.517C176.752 171.331 181.665 178.676 181.665 186.767V210.575C181.665 210.704 181.639 210.832 181.589 210.951C181.54 211.069 181.466 211.177 181.374 211.267C181.282 211.358 181.173 211.429 181.053 211.476C180.934 211.524 180.806 211.547 180.677 211.544V211.544ZM167.305 209.606H179.688V186.758C179.688 169.442 154.669 161.729 152.663 161.138L123.652 161.322V165.731C123.651 167.438 124.249 169.091 125.341 170.403C126.434 171.715 127.952 172.602 129.631 172.911L160.522 178.599C162.426 178.948 164.147 179.953 165.387 181.441C166.626 182.928 167.305 184.802 167.305 186.738V209.606Z" fill="#093F68"/>
<path d="M158.322 89.9854C158.322 89.9854 160.259 100.799 158.322 110.111C156.384 119.423 139.581 124.268 132.595 117.001C125.609 109.733 121.142 91.7198 131.374 85.373C141.607 79.0262 158.322 89.9854 158.322 89.9854Z" fill="#FFC9B0"/>
<path d="M142.014 121.506C140.153 121.582 138.295 121.282 136.552 120.625C134.809 119.967 133.216 118.965 131.869 117.679C126.743 112.349 123.632 102.689 124.514 95.2081C125.115 90.4213 127.295 86.7392 130.851 84.5493C141.51 77.9311 158.157 88.7353 158.865 89.1907C158.978 89.2627 159.076 89.3576 159.151 89.4694C159.226 89.5812 159.277 89.7074 159.301 89.8399C159.378 90.2954 161.239 100.974 159.301 110.353C158.332 114.956 154 118.909 147.925 120.663C146.003 121.218 144.014 121.502 142.014 121.506V121.506ZM138.962 84.3846C136.475 84.3185 134.021 84.9531 131.878 86.2159C128.061 88.5899 126.83 92.5531 126.471 95.46C125.502 103.105 129.185 112.068 133.254 116.332C136.21 119.433 141.762 120.382 147.343 118.774C152.624 117.233 156.549 113.774 157.334 109.917C158.971 101.943 157.721 92.6597 157.401 90.586C155.57 89.4523 146.888 84.3846 138.962 84.3846V84.3846Z" fill="#093F68"/>
<path d="M154.503 104.404C155.525 104.404 156.354 103.58 156.354 102.563C156.354 101.546 155.525 100.722 154.503 100.722C153.481 100.722 152.653 101.546 152.653 102.563C152.653 103.58 153.481 104.404 154.503 104.404Z" fill="#093F68"/>
<path d="M157.636 104.404C157.636 104.404 160.94 110.635 159.69 110.964C158.677 111.138 157.641 111.138 156.628 110.964" fill="#FFC9B0"/>
<path d="M158.301 112.078C157.681 112.075 157.062 112.023 156.45 111.923C156.323 111.901 156.201 111.853 156.092 111.784C155.983 111.715 155.889 111.625 155.814 111.519C155.74 111.413 155.687 111.294 155.659 111.168C155.631 111.042 155.628 110.912 155.65 110.784C155.673 110.657 155.72 110.535 155.789 110.426C155.858 110.317 155.948 110.223 156.054 110.149C156.16 110.075 156.279 110.022 156.405 109.994C156.531 109.966 156.662 109.963 156.789 109.985C157.503 110.104 158.228 110.137 158.95 110.082C158.415 108.265 157.68 106.514 156.76 104.859C156.7 104.744 156.663 104.619 156.652 104.491C156.641 104.362 156.655 104.232 156.693 104.109C156.732 103.986 156.795 103.871 156.878 103.772C156.96 103.673 157.062 103.591 157.177 103.531C157.291 103.472 157.416 103.435 157.545 103.424C157.674 103.412 157.803 103.426 157.927 103.465C158.05 103.504 158.164 103.566 158.263 103.649C158.363 103.732 158.444 103.834 158.504 103.948C159.87 106.526 161.411 109.849 160.801 111.157C160.721 111.342 160.6 111.506 160.447 111.637C160.294 111.768 160.113 111.862 159.919 111.913C159.388 112.031 158.845 112.086 158.301 112.078V112.078Z" fill="#093F68"/>
<path d="M147.663 99.6367C147.405 99.6608 147.144 99.6339 146.896 99.5574C146.648 99.4809 146.418 99.3563 146.218 99.1907C146.019 99.0251 145.853 98.8219 145.732 98.5925C145.611 98.3631 145.536 98.112 145.512 97.8537C145.488 97.5954 145.515 97.3349 145.591 97.087C145.668 96.8391 145.792 96.6086 145.958 96.4089C146.124 96.2091 146.327 96.044 146.556 95.9228C146.786 95.8016 147.037 95.7268 147.295 95.7026L155.929 94.0359C156.179 93.9723 156.44 93.9587 156.696 93.9958C156.952 94.033 157.198 94.1202 157.42 94.2524C157.643 94.3847 157.837 94.5595 157.991 94.7667C158.146 94.974 158.258 95.2097 158.322 95.4603C158.386 95.711 158.399 95.9718 158.362 96.2277C158.325 96.4837 158.238 96.7298 158.105 96.952C157.973 97.1743 157.798 97.3683 157.591 97.523C157.384 97.6777 157.148 97.7901 156.898 97.8537H156.704L148.06 99.5204C147.935 99.5798 147.801 99.6191 147.663 99.6367V99.6367Z" fill="#093F68"/>
<path d="M160.561 89.3066C160.561 89.3066 148.042 90.0624 144.282 95.2077C140.523 100.353 147.412 107.989 145.91 111.981C144.408 115.973 141.899 117.504 135.881 117.998C129.864 118.492 121.24 113.425 117.723 107.775C114.205 102.126 109.05 93.3279 116.124 81.1284C122.587 69.9463 136.54 68.6479 145.087 70.8959C154.505 73.425 160.183 75.644 160.561 89.3066Z" fill="#70CC40"/>
<path d="M135.075 118.997C128.942 118.997 120.541 114.074 116.878 108.27C113.69 103.135 107.74 93.5707 115.25 80.6154C122.13 68.7066 137.013 67.7182 145.289 69.9565C155.124 72.6019 161.122 75.2181 161.5 89.2781C161.5 89.5351 161.398 89.7815 161.216 89.9632C161.034 90.145 160.788 90.2471 160.531 90.2471C160.414 90.2471 148.428 91.0319 145.027 95.7315C143.167 98.2799 144.426 101.739 145.647 105.073C146.616 107.737 147.585 110.257 146.791 112.282C145.143 116.652 142.304 118.396 135.967 118.929C135.696 118.968 135.386 118.987 135.075 118.997ZM137.624 70.9546C130.289 70.9546 121.607 73.5709 116.965 81.6134C110.085 93.5416 115.386 102.117 118.574 107.243C121.936 112.708 130.376 117.446 135.822 117.001C141.49 116.526 143.632 115.266 145.008 111.623C145.511 110.276 144.707 108.086 143.854 105.809C142.527 102.156 141.015 98.0571 143.506 94.6366C146.897 89.9951 156.471 88.7354 159.562 88.4157C158.98 76.284 153.806 74.2879 144.814 71.8751C142.467 71.2592 140.05 70.9498 137.624 70.9546V70.9546Z" fill="#093F68"/>
<path d="M160.396 81.9915C160.396 81.9915 149.136 84.3849 148.516 85.7512C147.896 87.1174 148.971 89.0651 153.526 90.5961C158.08 92.1271 170.095 90.9643 169.998 88.4546C169.901 85.945 160.396 81.9915 160.396 81.9915Z" fill="#70CC40"/>
<path d="M159.321 92.2529C157.262 92.3095 155.207 92.0713 153.216 91.5455C150.173 90.5765 148.294 89.2587 147.625 87.7277C147.458 87.3612 147.371 86.963 147.371 86.5601C147.371 86.1572 147.458 85.759 147.625 85.3925C148.177 84.1716 152.402 82.7278 160.222 81.0708C160.414 81.0129 160.62 81.0129 160.813 81.0708C163.826 82.3305 170.861 85.5669 170.997 88.3769C171.004 88.73 170.918 89.0788 170.748 89.3883C170.578 89.6978 170.33 89.9572 170.028 90.1405C168.245 91.5068 163.536 92.2529 159.321 92.2529ZM149.379 86.2839C149.335 86.3866 149.313 86.497 149.313 86.6086C149.313 86.7201 149.335 86.8305 149.379 86.9332C149.573 87.3886 150.348 88.5611 153.788 89.6754C158.235 91.1482 168.274 89.811 168.962 88.4448C168.904 87.563 164.786 84.9855 160.241 83.0572C155.59 84.0262 150.231 85.5088 149.379 86.2452V86.2839Z" fill="#093F68"/>
<path d="M137.293 113.222C138.695 113.222 139.832 112.085 139.832 110.683C139.832 109.281 138.695 108.144 137.293 108.144C135.891 108.144 134.754 109.281 134.754 110.683C134.754 112.085 135.891 113.222 137.293 113.222Z" fill="#093F68"/>
<path d="M137.295 114.21C136.598 114.21 135.916 114.003 135.336 113.616C134.756 113.228 134.304 112.677 134.037 112.033C133.77 111.388 133.7 110.679 133.836 109.995C133.972 109.311 134.308 108.682 134.801 108.189C135.294 107.696 135.923 107.36 136.607 107.224C137.291 107.088 138 107.157 138.645 107.424C139.289 107.691 139.84 108.143 140.228 108.723C140.615 109.304 140.822 109.985 140.822 110.683C140.822 111.146 140.731 111.605 140.554 112.033C140.377 112.461 140.117 112.85 139.789 113.177C139.462 113.505 139.073 113.764 138.645 113.942C138.217 114.119 137.758 114.21 137.295 114.21V114.21ZM137.295 109.133C136.986 109.133 136.684 109.224 136.427 109.396C136.171 109.568 135.971 109.812 135.853 110.098C135.735 110.384 135.705 110.698 135.766 111.001C135.827 111.304 135.976 111.582 136.196 111.799C136.415 112.017 136.694 112.165 136.997 112.224C137.3 112.283 137.614 112.251 137.899 112.131C138.184 112.012 138.427 111.81 138.597 111.552C138.767 111.295 138.857 110.992 138.855 110.683C138.855 110.479 138.815 110.276 138.736 110.087C138.658 109.899 138.543 109.727 138.398 109.583C138.253 109.439 138.081 109.325 137.891 109.248C137.702 109.171 137.5 109.131 137.295 109.133V109.133Z" fill="#093F68"/>
<path d="M153.563 114.403C152.321 114.48 151.094 114.103 150.109 113.342C149.125 112.581 148.452 111.487 148.214 110.266C148.187 110.138 148.187 110.007 148.212 109.879C148.237 109.752 148.288 109.63 148.362 109.523C148.435 109.415 148.529 109.323 148.639 109.253C148.748 109.182 148.871 109.135 148.999 109.113V109.113C149.126 109.086 149.257 109.085 149.384 109.11C149.511 109.135 149.632 109.185 149.739 109.257C149.847 109.329 149.939 109.422 150.01 109.531C150.08 109.639 150.129 109.761 150.152 109.888C150.675 112.659 153.592 112.456 153.931 112.417C154.058 112.404 154.187 112.416 154.31 112.452C154.432 112.488 154.547 112.548 154.646 112.629C154.745 112.709 154.828 112.809 154.889 112.921C154.95 113.034 154.988 113.157 155.002 113.284C155.015 113.412 155.003 113.54 154.967 113.663C154.931 113.786 154.87 113.9 154.79 113.999C154.709 114.099 154.61 114.181 154.498 114.242C154.385 114.303 154.262 114.342 154.135 114.355C153.945 114.381 153.754 114.397 153.563 114.403V114.403Z" fill="#093F68"/>
<path d="M163.5 324C252.142 324 324 252.142 324 163.5C324 74.8583 252.142 3 163.5 3C74.8583 3 3 74.8583 3 163.5C3 252.142 74.8583 324 163.5 324Z" stroke="#F9C00C" stroke-width="5"/>
</svg>
