<svg xmlns="http://www.w3.org/2000/svg" viewBox="0 0 183.69 192.17"><defs><style>.cls-1{fill:#f56132;}.cls-2{fill:#093f68;}.cls-3{fill:#ffc9b0;}.cls-4{fill:#68e1fd;}.cls-5{fill:#fff;}.cls-6{fill:#ffbc0e;}.cls-7{fill:#70cc40;}</style></defs><g id="Layer_2" data-name="Layer 2"><g id="Layer_1-2" data-name="Layer 1"><g id="_52_scooter_outline" data-name=" 52 scooter outline"><path class="cls-1" d="M96,146.93l-.22,8.68h22.45a.53.53,0,0,0,.32-.94l-10.44-8.22Z"/><path class="cls-2" d="M95.74,156.62a1.07,1.07,0,0,1-.74-.3,1,1,0,0,1-.28-.74l.22-8.68a1,1,0,0,1,1-1l12.08-.47a1,1,0,0,1,.66.21l10.47,8.21a1.53,1.53,0,0,1-.94,2.74H95.78ZM97,147.9l-.17,6.69h20l-9.06-7.1Z"/><path class="cls-3" d="M108.62,81.24s9-.83,10.6.34,3.6,3.68,3.49,5.08-.67,3-2,3a38.32,38.32,0,0,0-4.42-.13c-1.66.17-8.22.26-8.22.26Z"/><path class="cls-2" d="M108.07,90.8a1,1,0,0,1-1-1v-.07l.56-8.54a1,1,0,0,1,.92-1c2.21-.2,9.54-.77,11.3.53,1.44,1,4.06,3.89,3.91,5.93-.17,2.39-1.36,4-3,4a16.9,16.9,0,0,1-1.74-.09,12.36,12.36,0,0,0-2.58,0c-1.68.18-8.05.26-8.32.26Zm1.51-8.62-.43,6.58c1.93,0,5.84-.11,7-.24a14.74,14.74,0,0,1,3,0c.55,0,1,.09,1.54.09s1-1.1,1-2.11c.06-.75-1.45-3-3-4.14-.77-.5-5.13-.5-9.09-.18Z"/><path class="cls-4" d="M81.47,59.62c-2.8-5-4-7.11-8.63-7.11H60a9.78,9.78,0,0,0-9.77,9.77V94H82.59V83.47c6,7.2,15.23,8.6,25.08,10l1.84-12.89C96.84,78.81,86.11,68,81.47,59.62Z"/><path class="cls-2" d="M82.59,95.05H50.26a1,1,0,0,1-1-1V62.24A10.78,10.78,0,0,1,60,51.46H72.84c5.23,0,6.64,2.52,9.45,7.52l.08.14h0c4.76,8.65,15.33,18.74,27.29,20.44a1,1,0,0,1,.85,1.15L108.68,93.6a1,1,0,0,1-1.15.86C98.86,93.23,89.92,92,83.61,86v8A1,1,0,0,1,82.59,95.05ZM51.28,93h30.3V83.43a1,1,0,0,1,.67-1,1,1,0,0,1,1.12.29C89,89.52,97.58,91,106.81,92.28l1.56-10.9c-12.23-2.2-22.92-12.47-27.78-21.31l-.07-.14c-2.72-4.85-3.64-6.48-7.68-6.48H60a8.75,8.75,0,0,0-8.75,8.75Z"/><path class="cls-2" d="M79.24,82.92a1,1,0,0,1-1-1V66.25a1,1,0,1,1,2,0V81.91A1,1,0,0,1,79.24,82.92Z"/><path class="cls-3" d="M64.22,50.82h7v4.06a3,3,0,0,1-3,3h-1a3,3,0,0,1-3-3h0V50.82Z"/><path class="cls-2" d="M68.26,58.86h-1a4.06,4.06,0,0,1-4-4V50.8a1,1,0,0,1,1-1h7a1,1,0,0,1,1,1v4.06a4,4,0,0,1-4,4Zm-3.05-7v3.05a2,2,0,0,0,2,2h1a2,2,0,0,0,2-2h0V51.83Z"/><path class="cls-4" d="M158.24,170.38H50.75v-7.64H1c-.17-27.33,20.75-42.29,20.75-42.29H88.5s-9.4,6-12.18,19.92c-1.91,9.46,14.21,18.27,32.06,14.21s23.35-12.6,21.07-29.09-16.61-33-16.61-33h12.49s7.64,3.36,20.47,26a80,80,0,0,1,5.53,12.18c5.36,14.68,6.6,29.54,6.9,36.18v1.08C158.25,169.47,158.24,170.38,158.24,170.38Z"/><path class="cls-2" d="M158.24,171.39H50.75a1,1,0,0,1-1-1v-6.62H1a1,1,0,0,1-1-1c-.16-27.53,21-43,21.18-43.12a1.06,1.06,0,0,1,.59-.19H88.5a1,1,0,0,1,.55,1.87c-.09.06-9.09,6-11.77,19.29-.66,3.27,1.21,5.91,2.9,7.56,4.71,4.61,15.46,8.27,27.95,5.45,16.86-3.82,22.55-11.65,20.3-28-2.22-16-16.24-32.29-16.37-32.48a1,1,0,0,1,.11-1.43,1,1,0,0,1,.65-.24h12.49a1.15,1.15,0,0,1,.41.08c.32.14,8.12,3.76,20.94,26.39a82,82,0,0,1,5.61,12.29,127.24,127.24,0,0,1,6.95,36.48v1.08c.05,1.66,0,2.58,0,2.58A1,1,0,0,1,158.24,171.39Zm-106.47-2H157.21V166.8a124.7,124.7,0,0,0-6.83-35.86,79.77,79.77,0,0,0-5.47-12c-11.39-20.06-18.65-24.79-19.83-25.45H115c3.71,4.64,13.56,18.11,15.47,31.82,2.41,17.41-3.92,26.17-21.85,30.22-9.27,2.1-22.56,1.12-29.82-6-2.89-2.82-4.12-6.16-3.47-9.41a34.18,34.18,0,0,1,10.23-18.73H22.07c-2.32,1.79-19.74,16-20.08,40.27H50.71a1,1,0,0,1,1,1Z"/><path class="cls-4" d="M157.8,168.05v2.33H122c0-.77-.08-1.55-.08-2.33a35,35,0,0,1,29.54-34.38,32.88,32.88,0,0,1,5.25-.4,34.77,34.77,0,0,1,26,11.68L157.8,167.06l-1.11,1Z"/><path class="cls-2" d="M157.88,171.39H122a1,1,0,0,1-1-.94q-.09-1.24-.09-2.4a36.05,36.05,0,0,1,30.4-35.38,34.79,34.79,0,0,1,5.4-.42,35.85,35.85,0,0,1,26.75,12,1,1,0,0,1-.07,1.43h0l-24.61,21.87a1.36,1.36,0,0,1,.11.44v2.37A1,1,0,0,1,157.88,171.39Zm-34.93-2h33.91v-.29h-.16a1,1,0,0,1-1-1,1,1,0,0,1,.35-.76l1.11-1,24.11-21.43a33.83,33.83,0,0,0-24.55-10.59,32,32,0,0,0-5.08.4A34,34,0,0,0,122.94,168c0,.44,0,.88,0,1.33Z"/><circle class="cls-2" cx="156.95" cy="167.86" r="23.29" transform="translate(-33.88 295.89) rotate(-80.78)"/><path class="cls-2" d="M157,192.17a24.31,24.31,0,1,1,24.31-24.36A24.31,24.31,0,0,1,157,192.17Zm0-46.59A22.33,22.33,0,1,0,179.23,168v-.1A22.34,22.34,0,0,0,157,145.58Z"/><circle class="cls-5" cx="156.95" cy="167.86" r="9.77"/><path class="cls-2" d="M157,178.64a10.79,10.79,0,1,1,10.78-10.8v0A10.8,10.8,0,0,1,157,178.64Zm0-19.54a8.76,8.76,0,1,0,8.75,8.77h0A8.77,8.77,0,0,0,157,159.1Z"/><circle class="cls-2" cx="33.57" cy="167.86" r="23.29"/><path class="cls-2" d="M33.57,192.17a24.31,24.31,0,1,1,24.36-24.36A24.31,24.31,0,0,1,33.57,192.17Zm0-46.59A22.33,22.33,0,1,0,55.9,167.91v0A22.34,22.34,0,0,0,33.57,145.58Z"/><circle class="cls-5" cx="33.57" cy="167.86" r="9.77"/><path class="cls-2" d="M33.57,178.64a10.79,10.79,0,1,1,10.79-10.79h0A10.81,10.81,0,0,1,33.57,178.64Zm0-19.54a8.76,8.76,0,1,0,8.76,8.76A8.76,8.76,0,0,0,33.57,159.1Z"/><path class="cls-6" d="M35.25,106.71H79.91a8.58,8.58,0,0,1,8.58,8.57v5.15h-67a13.75,13.75,0,0,1,13.74-13.75Z"/><path class="cls-2" d="M88.46,121.44h-67a1,1,0,0,1-1-1,14.78,14.78,0,0,1,14.76-14.76H79.87a9.6,9.6,0,0,1,9.59,9.59v5.17A1,1,0,0,1,88.46,121.44Zm-65.9-2H87.44v-4.15a7.57,7.57,0,0,0-7.56-7.56H35.22A12.75,12.75,0,0,0,22.56,119.41Z"/><path class="cls-4" d="M6.16,162.74H57.93s15.1-16.88,4.81-27.07c-7.76-7.67-23.14-7-36-.11S8.91,154.42,6.16,162.74Z"/><path class="cls-2" d="M57.93,163.76H6.16a1,1,0,0,1-1-1.34c2.83-8.58,8.12-20.8,21.09-27.75,13.86-7.43,29.43-7.31,37.16.28,10.85,10.75-4.12,27.75-4.77,28.42A1,1,0,0,1,57.93,163.76Zm-50.36-2H57.46c2-2.39,13.28-16.7,4.56-25.38-7.05-7-21.67-6.95-34.77.06C15.64,142.68,10.63,153,7.58,161.73Z"/><rect class="cls-6" x="112.89" y="83.56" width="12.37" height="8.93"/><path class="cls-2" d="M125.26,93.52H112.89a1,1,0,0,1-1-1v-9a1,1,0,0,1,1-1h12.37a1,1,0,0,1,1,1v9A1,1,0,0,1,125.26,93.52Zm-11.36-2h10.35V84.58H113.9Z"/><polygon class="cls-6" points="134.43 80.41 125.26 83.56 125.26 92.5 134.43 95.66 134.43 80.41"/><path class="cls-2" d="M134.46,96.68a1.28,1.28,0,0,1-.34-.06L125,93.46a1,1,0,0,1-.68-.95v-9a1,1,0,0,1,.68-1l9.13-3.16a1,1,0,0,1,1.35,1V95.63a1.1,1.1,0,0,1-1,1.05Zm-8.12-4.91,7.1,2.47V81.86l-7.1,2.46Z"/><path class="cls-2" d="M109.63,97.64a1,1,0,0,1-1-1,1,1,0,0,1,.33-.74l9.44-8.59a1,1,0,1,1,1.37,1.5l-9.45,8.59A1,1,0,0,1,109.63,97.64Z"/><path class="cls-2" d="M119.08,84.58a1,1,0,0,1-1-.88l-1.26-9.55-6.15-4.06a1,1,0,0,1,1.12-1.68l6.54,4.31a1,1,0,0,1,.45.71l1.32,10a1,1,0,0,1-.87,1.15h-.14Z"/><path class="cls-1" d="M109.63,62.34h0a1.6,1.6,0,0,1,1.6,1.6V74.48a1.6,1.6,0,0,1-1.6,1.6h0a1.6,1.6,0,0,1-1.6-1.6V63.94A1.6,1.6,0,0,1,109.63,62.34Z"/><path class="cls-2" d="M109.63,77.1A2.62,2.62,0,0,1,107,74.48h0V63.94a2.62,2.62,0,0,1,5.24,0V74.48a2.62,2.62,0,0,1-2.62,2.62Zm0-13.75a.6.6,0,0,0-.59.59h0V74.48a.6.6,0,0,0,.59.59.59.59,0,0,0,.59-.59V63.94a.59.59,0,0,0-.59-.59Z"/><path class="cls-2" d="M41.89,156.43H21.51a1,1,0,1,1,0-2H41.89a1,1,0,0,1,0,2Z"/><path class="cls-2" d="M43.76,151.54H23.38a1,1,0,1,1,0-2H43.76a1,1,0,0,1,0,2Z"/><path class="cls-2" d="M45.64,146.66H25.24a1,1,0,0,1,0-2h20.4a1,1,0,0,1,0,2Z"/><path class="cls-3" d="M106,83.5s9-1.13,10.61,0,3.71,3.55,3.66,4.92-.57,3-1.92,3.11a36.21,36.21,0,0,0-4.42,0c-1.65.23-8.21.53-8.21.53Z"/><path class="cls-2" d="M105.77,93.07a1,1,0,0,1-.71-.28,1,1,0,0,1-.3-.76l.27-8.56a1,1,0,0,1,.89-1c2.2-.28,9.5-1.09,11.31.16,1.48,1,4.19,3.74,4.06,5.79-.1,2.4-1.22,4-2.88,4.06h-1.74a14,14,0,0,0-2.59,0c-1.68.25-8,.53-8.31.54ZM107,84.41,106.82,91c1.93-.09,5.84-.29,7-.46a14.94,14.94,0,0,1,3,0h1.53c.52,0,.91-1.12,1-2.14,0-.76-1.55-2.9-3.21-4.06-.75-.5-5.12-.36-9,.08Z"/><path class="cls-4" d="M66.93,62.34C71.22,67.9,83.78,80.67,109,81.5l.7,13a9.75,9.75,0,0,1-1.12.06c-29.22-1-44.92-15.54-51.3-23.42"/><path class="cls-2" d="M108.67,95.53h-.12c-29.29-1-45.18-15.32-52-23.8a1,1,0,1,1,1.57-1.27h0c6.66,8.2,22.07,22.11,50.54,23h0l-.54-11C83,81.36,70.43,68.49,66.16,63a1,1,0,0,1,.09-1.43,1,1,0,0,1,1.44.09l.07.1c4.15,5.37,16.48,18,41.3,18.77a1,1,0,0,1,1,1l.7,13a1,1,0,0,1-.92,1A6.22,6.22,0,0,1,108.67,95.53Z"/><path class="cls-2" d="M81.36,94l-31.1.19v5.56a8.56,8.56,0,0,0,7.06,8.46l31.88,5.87a7.55,7.55,0,0,1,6.17,7.41v24.53H110.1V121.53C110.1,102,81.36,94,81.36,94Z"/><path class="cls-2" d="M110.1,147.07H95.32a1,1,0,0,1-1-1V121.53A6.53,6.53,0,0,0,89,115.12l-31.89-5.86a9.56,9.56,0,0,1-7.83-9.41V94.29a1,1,0,0,1,1-1l31.1-.2a1.31,1.31,0,0,1,.28,0A62.76,62.76,0,0,1,96.28,99.6c9.76,6,14.83,13.58,14.83,21.93v24.53A1,1,0,0,1,110.1,147.07Zm-13.8-2h12.78V121.53c0-17.87-25.82-25.83-27.89-26.44l-29.94.19v4.55a7.54,7.54,0,0,0,6.17,7.41l31.88,5.89a8.53,8.53,0,0,1,7,8.4Z"/><path class="cls-3" d="M87,21.66s2,11.16,0,20.78S67.69,57,60.46,49.54,48.64,23.45,59.21,16.9,87,21.66,87,21.66Z"/><path class="cls-2" d="M70.2,54.19a14.32,14.32,0,0,1-10.47-3.95c-5.28-5.5-8.5-15.47-7.59-23.19.62-4.94,2.87-8.74,6.54-11,11-6.84,28.18,4.31,28.92,4.79a1,1,0,0,1,.44.67c.08.46,2,11.49,0,21.16-1,4.75-5.47,8.83-11.74,10.65A22.49,22.49,0,0,1,70.2,54.19ZM67.05,15.88a13.7,13.7,0,0,0-7.31,1.89c-3.93,2.45-5.2,6.54-5.58,9.54-1,7.89,2.8,17.15,7,21.54,3,3.2,8.78,4.18,14.53,2.52,5.45-1.59,9.5-5.16,10.31-9.14,1.69-8.23.4-17.81.07-19.95C84.2,21.1,75.23,15.88,67.05,15.88Z"/><ellipse class="cls-2" cx="83.09" cy="34.64" rx="1.91" ry="1.9"/><path class="cls-3" d="M86.33,36.54s3.41,6.43,2.11,6.77a9.31,9.31,0,0,1-3.16,0"/><path class="cls-2" d="M87,44.47a12.24,12.24,0,0,1-1.92-.17,1,1,0,1,1,.35-2,8.84,8.84,0,0,0,2.24.1A26,26,0,0,0,85.42,37a1,1,0,1,1,1.8-.94c1.41,2.66,3,6.09,2.37,7.44a1.35,1.35,0,0,1-.91.78A7.12,7.12,0,0,1,87,44.47Z"/><path class="cls-2" d="M76,31.63a2,2,0,1,1-.38-4.06l8.91-1.73a2,2,0,0,1,1,3.94l-.2,0-8.92,1.72A1.59,1.59,0,0,1,76,31.63Z"/><path class="cls-7" d="M89.34,21s-12.92.78-16.8,6.09,3.23,13.19,1.68,17.31-4.13,5.7-10.35,6.22S48.76,45.86,45.13,40s-8.94-14.93-1.67-27.5C50.13,1,64.53-.36,73.35,2,83.09,4.58,89,6.86,89.34,21Z"/><path class="cls-2" d="M63,51.6c-6.33,0-15-5.07-18.77-11.07C41,35.23,34.84,25.36,42.58,12,49.69-.3,65-1.32,73.62,1,83.77,3.71,90,6.41,90.36,20.92a1,1,0,0,1-1,1c-.12,0-12.49.81-16.05,5.67-1.91,2.62-.61,6.19.64,9.63,1,2.75,2,5.35,1.18,7.44C73.48,49.19,70.54,51,64,51.53,63.69,51.57,63.37,51.59,63,51.6ZM65.67,2C58.1,2,49.15,4.72,44.36,13,37.25,25.32,42.72,34.17,46,39.46,49.52,45.1,58.19,50,63.81,49.54c5.85-.49,8.06-1.79,9.48-5.55.52-1.39-.31-3.65-1.18-6-1.37-3.77-2.94-8-.37-11.53,3.5-4.79,13.38-6.09,16.58-6.42C87.72,7.49,82.37,5.43,73.09,2.94A29.46,29.46,0,0,0,65.67,2Z"/><path class="cls-7" d="M89.17,13.41s-11.61,2.47-12.26,3.88.47,3.42,5.17,5,17.11.38,17-2.21S89.17,13.41,89.17,13.41Z"/><path class="cls-2" d="M88.06,24a22.31,22.31,0,0,1-6.3-.73c-3.14-1-5.08-2.36-5.77-3.94a2.9,2.9,0,0,1,0-2.41c.57-1.26,4.94-2.75,13-4.46a1,1,0,0,1,.6,0c3.11,1.3,10.37,4.64,10.51,7.54a2.08,2.08,0,0,1-1,1.82C97.27,23.23,92.42,24,88.06,24ZM77.8,17.84a.86.86,0,0,0,0,.67c.2.47,1,1.68,4.55,2.83,4.6,1.53,15,.15,15.66-1.27-.06-.91-4.3-3.57-9-5.56-4.8,1-10.34,2.53-11.22,3.29Z"/><circle class="cls-2" cx="65.34" cy="43.02" r="2.62"/><path class="cls-2" d="M65.34,46.66A3.64,3.64,0,1,1,69,43a3.64,3.64,0,0,1-3.63,3.64Zm0-5.24a1.61,1.61,0,1,0,1.6,1.6,1.61,1.61,0,0,0-1.6-1.6Z"/><path class="cls-2" d="M82.12,46.86a5.29,5.29,0,0,1-5.52-4.27,1,1,0,0,1,.81-1.19h0a1,1,0,0,1,1.19.8c.54,2.86,3.56,2.65,3.9,2.61a1,1,0,1,1,.21,2A5.72,5.72,0,0,1,82.12,46.86Z"/></g></g></g></svg>