<svg xmlns="http://www.w3.org/2000/svg" viewBox="0 0 257.32 257.32"><defs><style>.cls-1{fill:#f56132;}.cls-2{fill:#093f68;}.cls-3{fill:#ffc9b0;}.cls-4{fill:#68e1fd;}.cls-5{fill:#fff;}.cls-6{fill:#ffbc0e;}.cls-7{fill:#70cc40;}.cls-8{fill:none;stroke:#fff;}</style></defs><g id="Layer_2" data-name="Layer 2"><g id="Layer_1-2" data-name="Layer 1"><g id="_52_scooter_outline" data-name=" 52 scooter outline"><path class="cls-1" d="M144.48,155.82l-.23,8.68h22.46a.53.53,0,0,0,.51-.54.51.51,0,0,0-.19-.4l-10.44-8.22Z"/><path class="cls-2" d="M144.25,165.51a1.06,1.06,0,0,1-.73-.3,1,1,0,0,1-.28-.74l.22-8.68a1,1,0,0,1,1-1l12.08-.47a1,1,0,0,1,.66.21l10.47,8.21a1.53,1.53,0,0,1-.94,2.74H144.29Zm1.22-8.72-.17,6.69h20l-9.05-7.1Z"/><path class="cls-3" d="M157.13,90.13s9-.83,10.61.34,3.59,3.68,3.49,5.08-.67,3-2,3a38.39,38.39,0,0,0-4.42-.13c-1.66.17-8.22.25-8.22.25Z"/><path class="cls-2" d="M156.59,99.69a1,1,0,0,1-1-1v-.07l.56-8.54a1,1,0,0,1,.92-.95c2.21-.2,9.53-.77,11.3.53,1.44,1,4.06,3.89,3.91,5.93-.18,2.39-1.36,4-3,4a16.9,16.9,0,0,1-1.74-.09,12.36,12.36,0,0,0-2.58,0c-1.69.18-8,.26-8.32.26Zm1.51-8.62-.43,6.58c1.93,0,5.84-.11,7-.24a14.74,14.74,0,0,1,3,0c.55,0,1,.09,1.54.09s.95-1.1,1-2.11c.06-.76-1.45-3-3-4.15-.77-.49-5.13-.49-9.09-.17Z"/><path class="cls-4" d="M130,68.51c-2.8-5-4-7.11-8.63-7.11H108.55a9.76,9.76,0,0,0-9.77,9.77v31.76h32.33V92.36c6,7.2,15.22,8.6,25.08,10L158,89.47C145.36,87.7,134.63,76.93,130,68.51Z"/><path class="cls-2" d="M131.11,103.94H98.78a1,1,0,0,1-1-1V71.13a10.78,10.78,0,0,1,10.78-10.78h12.81c5.23,0,6.63,2.51,9.44,7.52l.09.14h0c4.76,8.65,15.33,18.74,27.29,20.44A1,1,0,0,1,159,89.6l-1.84,12.89a1,1,0,0,1-.39.67,1,1,0,0,1-.75.19c-8.67-1.24-17.61-2.51-23.93-8.45v8A1,1,0,0,1,131.11,103.94Zm-31.31-2h30.29V92.32a1,1,0,0,1,.67-.95,1,1,0,0,1,1.13.29c5.62,6.75,14.21,8.19,23.44,9.51l1.56-10.9C144.66,88.07,134,77.8,129.11,69l-.07-.13c-2.72-4.85-3.65-6.48-7.68-6.48H108.55a8.75,8.75,0,0,0-8.75,8.75Z"/><path class="cls-2" d="M127.76,91.81a1,1,0,0,1-1-1V75.14a1,1,0,1,1,2,0V90.8A1,1,0,0,1,127.76,91.81Z"/><path class="cls-3" d="M112.74,59.71h7v4.06a3,3,0,0,1-3,3h-1a3,3,0,0,1-3-3h0V59.71Z"/><path class="cls-2" d="M116.78,67.75h-1a4.08,4.08,0,0,1-4-4V59.69a1,1,0,0,1,1-1h7a1,1,0,0,1,1,1v4.06a4,4,0,0,1-4,4Zm-3-7v3.05a2,2,0,0,0,2,2h1a2,2,0,0,0,2-2h0V60.72Z"/><path class="cls-4" d="M206.76,179.26H99.27v-7.63H49.53c-.16-27.33,20.76-42.29,20.76-42.29H137s-9.4,6-12.18,19.92c-1.91,9.46,14.21,18.27,32.06,14.21s23.35-12.6,21.07-29.09-16.61-33-16.61-33h12.49s7.63,3.36,20.46,26a80,80,0,0,1,5.54,12.18c5.35,14.67,6.6,29.53,6.9,36.18v1.08C206.77,178.36,206.76,179.26,206.76,179.26Z"/><path class="cls-2" d="M206.76,180.28H99.27a1,1,0,0,1-1-1v-6.61H49.53a1,1,0,0,1-1-1c-.16-27.53,21-43,21.18-43.13a1,1,0,0,1,.59-.18H137a1,1,0,0,1,.54,1.87c-.09.06-9.08,6-11.76,19.28-.66,3.28,1.21,5.92,2.89,7.57,4.71,4.6,15.47,8.27,28,5.45,16.86-3.82,22.55-11.66,20.3-28-2.23-16-16.24-32.29-16.38-32.48a1,1,0,0,1,.77-1.67h12.49a1.15,1.15,0,0,1,.41.08c.32.14,8.12,3.76,20.94,26.39a82.55,82.55,0,0,1,5.61,12.29,127.24,127.24,0,0,1,7,36.48v1.08c0,1.66,0,2.58,0,2.58A1,1,0,0,1,206.76,180.28Zm-106.48-2H205.73v-2.56a125,125,0,0,0-6.83-35.86,79.77,79.77,0,0,0-5.47-12C182,107.8,174.77,103.07,173.6,102.41H163.51c3.7,4.64,13.56,18.11,15.47,31.82,2.41,17.41-3.92,26.17-21.86,30.22-9.26,2.1-22.55,1.12-29.82-6-2.88-2.82-4.11-6.16-3.46-9.41a34.13,34.13,0,0,1,10.22-18.73H70.58c-2.31,1.79-19.74,16-20.07,40.27H99.23a1,1,0,0,1,1,1Z"/><path class="cls-4" d="M206.32,176.94v2.32H170.5c-.05-.76-.08-1.54-.08-2.32A35,35,0,0,1,200,142.56a32.85,32.85,0,0,1,5.24-.4,34.79,34.79,0,0,1,26,11.68L206.32,176l-1.12,1Z"/><path class="cls-2" d="M206.4,180.28H170.5a1,1,0,0,1-1-.94q-.09-1.25-.09-2.4a36.05,36.05,0,0,1,30.39-35.38,35,35,0,0,1,5.4-.42,35.86,35.86,0,0,1,26.76,12,1,1,0,0,1-.07,1.43h0l-24.62,21.87a1.16,1.16,0,0,1,.12.44v2.37A1,1,0,0,1,206.4,180.28Zm-34.93-2h33.91V178h-.17a1,1,0,0,1-1-1,1,1,0,0,1,.34-.76l1.12-1,24.11-21.42a33.8,33.8,0,0,0-24.56-10.59,31.9,31.9,0,0,0-5.07.4,34,34,0,0,0-28.68,33.37c0,.44,0,.88,0,1.33Z"/><circle class="cls-2" cx="205.47" cy="176.75" r="23.29" transform="translate(-1.91 351.25) rotate(-80.78)"/><path class="cls-2" d="M205.47,201.06a24.31,24.31,0,1,1,24.31-24.36A24.31,24.31,0,0,1,205.47,201.06Zm0-46.59a22.33,22.33,0,1,0,22.28,22.38v-.1A22.33,22.33,0,0,0,205.47,154.47Z"/><circle class="cls-5" cx="205.47" cy="176.75" r="9.77"/><path class="cls-2" d="M205.47,187.53a10.79,10.79,0,1,1,10.78-10.8v0A10.8,10.8,0,0,1,205.47,187.53Zm0-19.54a8.76,8.76,0,1,0,8.75,8.77h0A8.77,8.77,0,0,0,205.47,168Z"/><circle class="cls-2" cx="82.08" cy="176.75" r="23.29"/><path class="cls-2" d="M82.08,201.06a24.31,24.31,0,1,1,24.36-24.36A24.31,24.31,0,0,1,82.08,201.06Zm0-46.59a22.33,22.33,0,1,0,22.33,22.33v-.05A22.32,22.32,0,0,0,82.08,154.47Z"/><circle class="cls-5" cx="82.08" cy="176.75" r="9.77"/><path class="cls-2" d="M82.08,187.53a10.79,10.79,0,1,1,10.79-10.79h0A10.8,10.8,0,0,1,82.08,187.53Zm0-19.54a8.76,8.76,0,1,0,8.76,8.76A8.76,8.76,0,0,0,82.08,168Z"/><path class="cls-6" d="M83.77,115.59h44.66a8.58,8.58,0,0,1,8.58,8.58v5.15H70a13.75,13.75,0,0,1,13.74-13.75Z"/><path class="cls-2" d="M137,130.33H70a1,1,0,0,1-1-1,14.77,14.77,0,0,1,14.76-14.76h44.66a9.6,9.6,0,0,1,9.59,9.59v5.17A1,1,0,0,1,137,130.33Zm-65.9-2H136v-4.15a7.57,7.57,0,0,0-7.56-7.56H83.74A12.75,12.75,0,0,0,71.08,128.3Z"/><path class="cls-4" d="M54.68,171.63h51.76s15.11-16.88,4.82-27.07c-7.76-7.67-23.15-7-36-.11S57.43,163.31,54.68,171.63Z"/><path class="cls-2" d="M106.44,172.65H54.68a1,1,0,0,1-.82-.43,1,1,0,0,1-.14-.91c2.83-8.58,8.12-20.8,21.09-27.75,13.86-7.43,29.43-7.31,37.16.28,10.85,10.75-4.12,27.75-4.77,28.42A1.07,1.07,0,0,1,106.44,172.65Zm-50.35-2H106c2-2.39,13.27-16.7,4.56-25.38-7.05-7-21.68-7-34.77.06-11.61,6.27-16.62,16.62-19.67,25.32Z"/><rect class="cls-6" x="161.41" y="92.45" width="12.37" height="8.93"/><path class="cls-2" d="M173.78,102.41H161.41a1,1,0,0,1-1-1V92.45a1,1,0,0,1,1-1h12.37a1,1,0,0,1,1,1v8.94A1,1,0,0,1,173.78,102.41Zm-11.36-2h10.34V93.47H162.42Z"/><polygon class="cls-6" points="182.94 89.3 173.78 92.45 173.78 101.39 182.94 104.55 182.94 89.3"/><path class="cls-2" d="M183,105.57a1.28,1.28,0,0,1-.34-.07l-9.13-3.15a1,1,0,0,1-.68-1V92.45a1,1,0,0,1,.68-1l9.13-3.16a1,1,0,0,1,.92.13,1,1,0,0,1,.43.83v15.22a1,1,0,0,1-.43.82A1,1,0,0,1,183,105.57Zm-8.12-4.91,7.1,2.47V90.75l-7.1,2.46Z"/><path class="cls-2" d="M158.15,106.53a1,1,0,0,1-1-1,1,1,0,0,1,.33-.75l9.44-8.58a1,1,0,0,1,1.43.06,1,1,0,0,1-.06,1.44l-9.45,8.59A1,1,0,0,1,158.15,106.53Z"/><path class="cls-2" d="M167.6,93.47a1,1,0,0,1-1-.89L165.32,83,159.17,79a1,1,0,0,1-.2-1.42,1,1,0,0,1,1.33-.26l6.54,4.31a1,1,0,0,1,.44.71l1.32,10a1,1,0,0,1-.86,1.15h-.14Z"/><path class="cls-1" d="M158.15,71.23h0a1.6,1.6,0,0,1,1.6,1.6V83.37a1.6,1.6,0,0,1-1.6,1.6h0a1.6,1.6,0,0,1-1.6-1.6V72.83A1.6,1.6,0,0,1,158.15,71.23Z"/><path class="cls-2" d="M158.15,86a2.62,2.62,0,0,1-2.62-2.62h0V72.83a2.62,2.62,0,0,1,5.24,0V83.37A2.62,2.62,0,0,1,158.15,86Zm0-13.75a.59.59,0,0,0-.59.59h0V83.37a.59.59,0,0,0,.59.59.6.6,0,0,0,.59-.59V72.83a.6.6,0,0,0-.59-.59Z"/><path class="cls-2" d="M90.41,165.32H70a1,1,0,1,1,0-2H90.41a1,1,0,0,1,0,2Z"/><path class="cls-2" d="M92.28,160.43H71.89a1,1,0,0,1,0-2H92.28a1,1,0,0,1,0,2Z"/><path class="cls-2" d="M94.15,155.54H73.76a1,1,0,0,1,0-2H94.15a1,1,0,1,1,0,2Z"/><path class="cls-3" d="M154.56,92.39s9-1.14,10.61,0,3.71,3.55,3.66,4.92-.57,3-1.92,3.11a36.38,36.38,0,0,0-4.43,0c-1.64.23-8.2.53-8.2.53Z"/><path class="cls-2" d="M154.29,102a1,1,0,0,1-1-1l.27-8.56a1,1,0,0,1,.88-1c2.21-.28,9.5-1.09,11.32.16,1.47,1,4.18,3.74,4.06,5.79-.1,2.4-1.23,4-2.88,4.06h-1.75a14,14,0,0,0-2.59,0c-1.67.25-8,.53-8.3.54Zm1.26-8.67-.21,6.59c1.93-.09,5.83-.29,7-.47a14.94,14.94,0,0,1,3,0h1.53c.52,0,.91-1.11.95-2.13,0-.76-1.55-2.9-3.22-4.06-.75-.5-5.11-.36-9,.07Z"/><path class="cls-4" d="M115.45,71.23c4.29,5.56,16.85,18.33,42.07,19.16l.7,13s-.74.07-1.13.06c-29.21-1-44.91-15.55-51.29-23.42"/><path class="cls-2" d="M157.18,104.42h-.12c-29.28-1-45.17-15.32-52-23.8a1,1,0,0,1,1.57-1.28h0c6.66,8.2,22.06,22.11,50.53,23h0l-.53-11c-25.07-1.12-37.64-14-41.91-19.52a1,1,0,1,1,1.52-1.34.39.39,0,0,1,.08.1c4.15,5.37,16.47,18,41.3,18.77a1,1,0,0,1,1,1l.7,13a1,1,0,0,1-.92,1A6.25,6.25,0,0,1,157.18,104.42Z"/><path class="cls-2" d="M129.88,102.93l-31.1.19v5.56a8.56,8.56,0,0,0,7.06,8.46L137.72,123a7.55,7.55,0,0,1,6.17,7.41V155h14.73V130.42C158.62,110.89,129.88,102.93,129.88,102.93Z"/><path class="cls-2" d="M158.62,156H143.84a1,1,0,0,1-1-1V130.42a6.53,6.53,0,0,0-5.34-6.41l-31.88-5.86a9.55,9.55,0,0,1-7.83-9.41v-5.56a1,1,0,0,1,1-1l31.1-.2a1.31,1.31,0,0,1,.28,0,62.76,62.76,0,0,1,14.64,6.52c9.76,6,14.83,13.58,14.83,21.93V155A1,1,0,0,1,158.62,156Zm-13.8-2H157.6V130.42c0-17.87-25.82-25.83-27.89-26.44l-29.94.19v4.55a7.53,7.53,0,0,0,6.17,7.41L137.82,122a8.54,8.54,0,0,1,7,8.4Z"/><path class="cls-3" d="M135.55,30.55s2,11.16,0,20.77S116.21,65.93,109,58.43s-11.82-26.09-1.26-32.64S135.55,30.55,135.55,30.55Z"/><path class="cls-2" d="M118.72,63.08a14.32,14.32,0,0,1-10.47-3.95c-5.29-5.5-8.5-15.47-7.59-23.19.62-4.94,2.87-8.74,6.54-11,11-6.83,28.18,4.32,28.91,4.79a1,1,0,0,1,.45.67c.08.47,2,11.49,0,21.17-1,4.75-5.47,8.83-11.74,10.64A22.17,22.17,0,0,1,118.72,63.08Zm-3.15-38.31a13.68,13.68,0,0,0-7.31,1.89c-3.94,2.45-5.21,6.54-5.58,9.54-1,7.89,2.8,17.14,7,21.54,3.05,3.2,8.78,4.18,14.54,2.52,5.45-1.59,9.5-5.16,10.31-9.14,1.69-8.23.4-17.81.07-19.95C132.71,30,123.75,24.77,115.57,24.77Z"/><ellipse class="cls-2" cx="131.61" cy="43.53" rx="1.91" ry="1.9"/><path class="cls-3" d="M134.84,45.43s3.41,6.43,2.12,6.77a9.31,9.31,0,0,1-3.16,0"/><path class="cls-2" d="M135.53,53.35a12.21,12.21,0,0,1-1.91-.16,1,1,0,1,1,.35-2,9.27,9.27,0,0,0,2.23.1,26.51,26.51,0,0,0-2.26-5.39,1,1,0,1,1,1.8-.94c1.41,2.66,3,6.09,2.37,7.44a1.37,1.37,0,0,1-.91.78A7.2,7.2,0,0,1,135.53,53.35Z"/><path class="cls-2" d="M124.55,40.51a2,2,0,1,1-.38-4.06l8.91-1.72a2,2,0,1,1,1,3.94l-.2,0-8.92,1.72A1.36,1.36,0,0,1,124.55,40.51Z"/><path class="cls-7" d="M137.86,29.85s-12.92.78-16.8,6.09,3.23,13.19,1.68,17.31-4.14,5.7-10.35,6.21S97.28,54.74,93.65,48.91,84.7,34,92,21.41c6.67-11.54,21.07-12.88,29.89-10.56C131.61,13.46,137.47,15.75,137.86,29.85Z"/><path class="cls-2" d="M111.56,60.49c-6.33,0-15-5.08-18.78-11.07-3.29-5.3-9.43-15.17-1.68-28.54,7.1-12.29,22.46-13.31,31-11,10.15,2.73,16.34,5.43,16.73,19.94a1,1,0,0,1-1,1c-.12,0-12.49.81-16,5.66-1.92,2.63-.62,6.2.64,9.64,1,2.75,2,5.35,1.18,7.44-1.7,4.51-4.63,6.31-11.17,6.86C112.2,60.46,111.88,60.48,111.56,60.49Zm2.63-49.58c-7.57,0-16.53,2.7-21.32,11-7.1,12.31-1.63,21.16,1.66,26.45C98,54,106.71,58.89,112.33,58.43c5.85-.49,8.06-1.79,9.48-5.55.52-1.39-.31-3.65-1.19-6-1.37-3.77-2.93-8-.36-11.53,3.5-4.79,13.38-6.09,16.57-6.42-.6-12.52-5.94-14.58-15.22-17.07A29,29,0,0,0,114.19,10.91Z"/><path class="cls-7" d="M137.69,22.3s-11.62,2.47-12.26,3.88.47,3.42,5.17,5,17.1.38,17-2.21S137.69,22.3,137.69,22.3Z"/><path class="cls-2" d="M136.58,32.89a22.27,22.27,0,0,1-6.3-.73c-3.14-1-5.08-2.36-5.77-3.94a2.9,2.9,0,0,1,0-2.41c.57-1.26,4.93-2.75,13-4.46a1.06,1.06,0,0,1,.61,0c3.11,1.3,10.37,4.64,10.51,7.54a2.08,2.08,0,0,1-1,1.82C145.79,32.12,140.93,32.89,136.58,32.89Zm-10.26-6.16a.86.86,0,0,0,0,.67c.2.47,1,1.68,4.55,2.83,4.59,1.52,14.95.14,15.66-1.27-.06-.91-4.31-3.57-9-5.56-4.8,1-10.33,2.53-11.21,3.29Z"/><circle class="cls-2" cx="113.85" cy="51.91" r="2.62"/><path class="cls-2" d="M113.85,55.55a3.64,3.64,0,1,1,3.64-3.64,3.64,3.64,0,0,1-3.64,3.64Zm0-5.24a1.61,1.61,0,1,0,1.61,1.6,1.6,1.6,0,0,0-1.61-1.6Z"/><path class="cls-2" d="M130.64,55.75a5.29,5.29,0,0,1-5.52-4.27,1,1,0,0,1,.81-1.19h0a1,1,0,0,1,1.19.8c.54,2.86,3.55,2.65,3.9,2.61a1,1,0,1,1,.21,2A5.72,5.72,0,0,1,130.64,55.75Z"/></g><path class="cls-6" d="M65.13,228.44v-25h4.54v25Zm4.3-9.14V215h4.39a3.15,3.15,0,0,0,2.46-1,4.54,4.54,0,0,0,0-5.37,3.14,3.14,0,0,0-2.46-.95H69.5l-.41-4.27h4.73a8.69,8.69,0,0,1,6.1,2A7.2,7.2,0,0,1,82.07,211a7.51,7.51,0,0,1-8.25,8.26Zm8.11,9.14L72.93,216.7h4.78L83,228.44Z"/><path class="cls-6" d="M91.35,228.79a4.89,4.89,0,0,1-4-1.75,7.56,7.56,0,0,1-1.43-4.93V209.8h4.66v11.13a3.77,3.77,0,0,0,.72,2.47,2.4,2.4,0,0,0,2,.87A2.76,2.76,0,0,0,95.71,223a8.32,8.32,0,0,0,.83-4.33l.93,6.2H96.06a5,5,0,0,1-1.67,2.92A4.62,4.62,0,0,1,91.35,228.79Zm5.19-5.63V209.8h4.67v12.31Zm.31,5.45-.31-4.46v-3.27h4.67v3.3l2.51.39v3.87Z"/><path class="cls-6" d="M105.24,214.18V209.8h17.11v4.38Zm4.37,5.17V204.18h4.65v15.17Zm8.92,9.44c-3.15,0-5.42-.65-6.82-1.93s-2.1-3.36-2.1-6.19v-2.43h4.65v2a3.94,3.94,0,0,0,1.07,3.09,5.22,5.22,0,0,0,3.54,1,14.82,14.82,0,0,0,1.7-.1c.6-.06,1.28-.14,2.05-.25l.41,4.45c-.75.14-1.49.24-2.21.31S119.34,228.79,118.53,228.79Z"/><path class="cls-6" d="M132.48,228.79a6.52,6.52,0,0,1-4.52-1.46,5.3,5.3,0,0,1-1.62-4.15,5.78,5.78,0,0,1,2.12-4.8,9.5,9.5,0,0,1,6-1.67,19.07,19.07,0,0,1,2.59.16,16.73,16.73,0,0,1,2.22.49l-.76,3.71a11.76,11.76,0,0,0-2-.31c-.59,0-1.2,0-1.84,0-2.41,0-3.62.7-3.62,2.11a1.71,1.71,0,0,0,.66,1.45,3.11,3.11,0,0,0,1.91.5,5,5,0,0,0,2.53-.58,4,4,0,0,0,1.52-1.48,3.65,3.65,0,0,0,.51-1.84v-1.16l.65,4.78h-1.46l.6-.56a5.29,5.29,0,0,1-.72,2.7,4.09,4.09,0,0,1-1.89,1.61A7,7,0,0,1,132.48,228.79Zm6.18-.18-.39-5.52-.07-2.42V217a2.33,2.33,0,0,0-1.25-2.19,8.28,8.28,0,0,0-3.71-.76l-4.66-.13.34-4.32,4,.05c3.3,0,5.76.71,7.36,2a6.74,6.74,0,0,1,2.41,5.61v6.89l2.53.39v3.87Z"/><path class="cls-6" d="M168.55,228.44v-25h4.37v25Zm9.31,0-4.31-19.51h-1.87v-5.45h3.7l4.3,19.51h1.16v5.45Zm2.46,0v-25h4.37v25Z"/><path class="cls-6" d="M189.2,228.44v-25h4.37v25Zm9.31,0-4.3-19.51h-1.88v-5.45H196L200.34,223h1.15v5.45Zm2.46,0v-25h4.38v25Z"/></g><g id="Layer_2-2" data-name="Layer 2"><circle class="cls-8" cx="128.66" cy="128.66" r="128.16"/></g></g></svg>